<svg width="70" height="100" viewBox="0 0 70 100" fill="none" xmlns="http://www.w3.org/2000/svg">
<rect x="0.5" y="0.5" width="69" height="99" rx="4.5" fill="#DBDBDB" stroke="#606060"/>
<path d="M11.5966 4.90909H13.1818V14.267C13.1818 15.1023 13.0284 15.8118 12.7216 16.3956C12.4148 16.9794 11.9822 17.4226 11.424 17.7251C10.8658 18.0277 10.2074 18.179 9.44886 18.179C8.73295 18.179 8.09588 18.049 7.53764 17.7891C6.9794 17.5249 6.54048 17.1499 6.22088 16.6641C5.90128 16.1783 5.74148 15.6009 5.74148 14.9318H7.30114C7.30114 15.3026 7.39276 15.6264 7.57599 15.9034C7.76349 16.1761 8.01918 16.3892 8.34304 16.5426C8.6669 16.696 9.03551 16.7727 9.44886 16.7727C9.90483 16.7727 10.2926 16.6768 10.6122 16.4851C10.9318 16.2933 11.1747 16.0121 11.3409 15.6413C11.5114 15.2663 11.5966 14.8082 11.5966 14.267V4.90909Z" fill="#606060"/>
<path d="M57.4034 94.0909H55.8182V84.733C55.8182 83.8977 55.9716 83.1882 56.2784 82.6044C56.5852 82.0206 57.0178 81.5774 57.576 81.2749C58.1342 80.9723 58.7926 80.821 59.5511 80.821C60.267 80.821 60.9041 80.951 61.4624 81.2109C62.0206 81.4751 62.4595 81.8501 62.7791 82.3359C63.0987 82.8217 63.2585 83.3991 63.2585 84.0682H61.6989C61.6989 83.6974 61.6072 83.3736 61.424 83.0966C61.2365 82.8239 60.9808 82.6108 60.657 82.4574C60.3331 82.304 59.9645 82.2273 59.5511 82.2273C59.0952 82.2273 58.7074 82.3232 58.3878 82.5149C58.0682 82.7067 57.8253 82.9879 57.6591 83.3587C57.4886 83.7337 57.4034 84.1918 57.4034 84.733V94.0909Z" fill="#606060"/>
<path d="M34.5801 71L18 50L34.5791 29L51.1582 50H51.1592L34.5801 71Z" fill="#606060"/>
</svg>
